<svg xmlns="http://www.w3.org/2000/svg" xmlns:xlink="http://www.w3.org/1999/xlink" width="40" zoomAndPan="magnify" viewBox="0 0 30 30.000001" height="40" preserveAspectRatio="xMidYMid meet" version="1.0"><defs><clipPath id="6ae7683326"><path d="M 5.765625 6.007812 L 23.910156 6.007812 L 23.910156 24.152344 L 5.765625 24.152344 Z M 5.765625 6.007812 " clip-rule="nonzero"/></clipPath><clipPath id="7cb4f58733"><path d="M 8.484375 8.726562 L 21.550781 8.726562 L 21.550781 21.792969 L 8.484375 21.792969 Z M 8.484375 8.726562 " clip-rule="nonzero"/></clipPath></defs><g clip-path="url(#6ae7683326)"><path fill="#ffffff" d="M 14.972656 5.984375 C 14.769531 5.988281 14.578125 6.03125 14.390625 6.109375 C 14.207031 6.191406 14.042969 6.300781 13.902344 6.449219 C 13.761719 6.59375 13.652344 6.757812 13.578125 6.945312 C 13.503906 7.136719 13.46875 7.328125 13.46875 7.53125 L 13.46875 13.636719 L 7.367188 13.636719 C 7.164062 13.632812 6.964844 13.667969 6.777344 13.746094 C 6.585938 13.820312 6.417969 13.929688 6.273438 14.074219 C 6.128906 14.21875 6.015625 14.382812 5.9375 14.574219 C 5.859375 14.761719 5.820312 14.957031 5.820312 15.160156 C 5.820312 15.367188 5.859375 15.5625 5.9375 15.75 C 6.015625 15.9375 6.128906 16.105469 6.273438 16.246094 C 6.417969 16.390625 6.585938 16.5 6.777344 16.578125 C 6.964844 16.652344 7.164062 16.691406 7.367188 16.6875 L 13.46875 16.6875 L 13.46875 22.789062 C 13.46875 22.996094 13.503906 23.191406 13.578125 23.382812 C 13.65625 23.570312 13.765625 23.738281 13.910156 23.882812 C 14.050781 24.027344 14.21875 24.140625 14.40625 24.21875 C 14.59375 24.296875 14.792969 24.339844 14.996094 24.339844 C 15.199219 24.339844 15.394531 24.296875 15.585938 24.21875 C 15.773438 24.140625 15.9375 24.027344 16.082031 23.882812 C 16.226562 23.738281 16.335938 23.570312 16.410156 23.382812 C 16.488281 23.191406 16.523438 22.996094 16.523438 22.789062 L 16.523438 16.6875 L 22.625 16.6875 C 22.828125 16.691406 23.027344 16.652344 23.214844 16.578125 C 23.40625 16.5 23.574219 16.390625 23.71875 16.246094 C 23.863281 16.105469 23.976562 15.9375 24.054688 15.75 C 24.132812 15.5625 24.171875 15.367188 24.171875 15.160156 C 24.171875 14.957031 24.132812 14.761719 24.054688 14.574219 C 23.976562 14.382812 23.863281 14.21875 23.71875 14.074219 C 23.574219 13.929688 23.40625 13.820312 23.214844 13.746094 C 23.027344 13.667969 22.828125 13.632812 22.625 13.636719 L 16.523438 13.636719 L 16.523438 7.53125 C 16.523438 7.324219 16.488281 7.128906 16.410156 6.9375 C 16.332031 6.746094 16.21875 6.578125 16.074219 6.433594 C 15.929688 6.285156 15.761719 6.175781 15.570312 6.097656 C 15.378906 6.019531 15.179688 5.980469 14.972656 5.984375 Z M 14.972656 5.984375 " fill-opacity="1" fill-rule="nonzero"/></g><g clip-path="url(#7cb4f58733)"><path fill="#ffffff" d="M 14.980469 8.714844 C 14.835938 8.714844 14.699219 8.746094 14.570312 8.800781 C 14.4375 8.859375 14.324219 8.9375 14.222656 9.039062 C 14.125 9.140625 14.046875 9.257812 13.996094 9.390625 C 13.941406 9.523438 13.917969 9.660156 13.917969 9.804688 L 13.917969 14.109375 L 9.617188 14.109375 C 9.472656 14.105469 9.332031 14.132812 9.199219 14.183594 C 9.066406 14.238281 8.949219 14.316406 8.84375 14.417969 C 8.742188 14.519531 8.664062 14.636719 8.609375 14.769531 C 8.550781 14.902344 8.523438 15.039062 8.523438 15.183594 C 8.523438 15.328125 8.550781 15.464844 8.609375 15.597656 C 8.664062 15.730469 8.742188 15.847656 8.84375 15.949219 C 8.949219 16.050781 9.066406 16.128906 9.199219 16.183594 C 9.332031 16.234375 9.472656 16.261719 9.617188 16.261719 L 13.917969 16.261719 L 13.917969 20.5625 C 13.917969 20.707031 13.945312 20.847656 13.996094 20.980469 C 14.050781 21.113281 14.128906 21.230469 14.230469 21.335938 C 14.332031 21.4375 14.449219 21.515625 14.582031 21.570312 C 14.714844 21.628906 14.851562 21.65625 14.996094 21.65625 C 15.140625 21.65625 15.277344 21.628906 15.410156 21.570312 C 15.542969 21.515625 15.660156 21.4375 15.761719 21.335938 C 15.863281 21.230469 15.941406 21.113281 15.996094 20.980469 C 16.046875 20.847656 16.074219 20.707031 16.070312 20.5625 L 16.070312 16.261719 L 20.375 16.261719 C 20.519531 16.261719 20.660156 16.234375 20.792969 16.183594 C 20.925781 16.128906 21.042969 16.050781 21.144531 15.949219 C 21.25 15.847656 21.328125 15.730469 21.382812 15.597656 C 21.4375 15.464844 21.464844 15.328125 21.464844 15.183594 C 21.464844 15.039062 21.4375 14.902344 21.382812 14.769531 C 21.328125 14.636719 21.25 14.519531 21.144531 14.417969 C 21.042969 14.316406 20.925781 14.238281 20.792969 14.183594 C 20.660156 14.132812 20.519531 14.105469 20.375 14.109375 L 16.070312 14.109375 L 16.070312 9.804688 C 16.074219 9.660156 16.046875 9.519531 15.992188 9.382812 C 15.9375 9.25 15.859375 9.128906 15.757812 9.027344 C 15.652344 8.925781 15.535156 8.847656 15.398438 8.792969 C 15.265625 8.738281 15.125 8.710938 14.980469 8.714844 Z M 14.980469 8.714844 " fill-opacity="1" fill-rule="nonzero"/></g></svg>