<svg xmlns="http://www.w3.org/2000/svg" xmlns:xlink="http://www.w3.org/1999/xlink" width="40" zoomAndPan="magnify" viewBox="0 0 30 30.000001" height="40" preserveAspectRatio="xMidYMid meet" version="1.0"><defs><clipPath id="52cd5f11aa"><path d="M 6.507812 6.023438 L 23.203125 6.023438 L 23.203125 22.71875 L 6.507812 22.71875 Z M 6.507812 6.023438 " clip-rule="nonzero"/></clipPath></defs><path stroke-linecap="butt" transform="matrix(0, 0.725806, -0.725806, 0, 12.168221, 12.412426)" fill="none" stroke-linejoin="miter" d="M 0.00225436 0.500868 L 5.798609 0.500868 " stroke="#ffffff" stroke-width="1" stroke-opacity="1" stroke-miterlimit="4"/><g clip-path="url(#52cd5f11aa)"><path fill="#000000" d="M 22.273438 13.445312 L 15.78125 13.445312 L 15.78125 6.953125 C 15.78125 6.695312 15.691406 6.476562 15.511719 6.296875 C 15.328125 6.113281 15.109375 6.023438 14.855469 6.023438 C 14.597656 6.023438 14.378906 6.113281 14.199219 6.296875 C 14.019531 6.476562 13.925781 6.695312 13.925781 6.953125 L 13.925781 13.445312 L 7.433594 13.445312 C 7.179688 13.445312 6.960938 13.535156 6.78125 13.714844 C 6.597656 13.894531 6.507812 14.113281 6.507812 14.371094 C 6.507812 14.628906 6.597656 14.84375 6.78125 15.027344 C 6.960938 15.207031 7.179688 15.296875 7.433594 15.296875 L 13.925781 15.296875 L 13.925781 21.789062 C 13.925781 22.046875 14.019531 22.265625 14.199219 22.445312 C 14.378906 22.628906 14.597656 22.71875 14.855469 22.71875 C 15.109375 22.71875 15.328125 22.628906 15.511719 22.445312 C 15.691406 22.265625 15.78125 22.046875 15.78125 21.789062 L 15.78125 15.296875 L 22.273438 15.296875 C 22.53125 15.296875 22.75 15.207031 22.929688 15.027344 C 23.109375 14.84375 23.203125 14.628906 23.203125 14.371094 C 23.203125 14.113281 23.109375 13.894531 22.929688 13.714844 C 22.75 13.535156 22.53125 13.445312 22.273438 13.445312 Z M 22.273438 13.445312 " fill-opacity="1" fill-rule="nonzero"/></g></svg>