<svg xmlns="http://www.w3.org/2000/svg" xmlns:xlink="http://www.w3.org/1999/xlink" width="40" zoomAndPan="magnify" viewBox="0 0 30 30.000001" height="40" preserveAspectRatio="xMidYMid meet" version="1.0"><defs><clipPath id="7ad6419236"><path d="M 0.484375 4.265625 L 13.546875 4.265625 L 13.546875 24.589844 L 0.484375 24.589844 Z M 0.484375 4.265625 " clip-rule="nonzero"/></clipPath></defs><g clip-path="url(#7ad6419236)"><path fill="#820263" d="M 13.226562 4.417969 C 12.980469 4.292969 12.683594 4.320312 12.464844 4.484375 L 4.855469 10.171875 L 1.234375 10.171875 C 0.828125 10.171875 0.503906 10.5 0.503906 10.902344 L 0.503906 18.195312 C 0.503906 18.597656 0.828125 18.925781 1.234375 18.925781 L 4.855469 18.925781 L 12.464844 24.613281 C 12.59375 24.710938 12.746094 24.757812 12.902344 24.757812 C 13.011719 24.757812 13.125 24.734375 13.226562 24.679688 C 13.476562 24.558594 13.628906 24.304688 13.628906 24.027344 L 13.628906 5.066406 C 13.628906 4.792969 13.476562 4.539062 13.226562 4.417969 Z M 13.226562 4.417969 " fill-opacity="1" fill-rule="nonzero"/><path fill="#820263" d="M 13.226562 4.417969 C 12.980469 4.292969 12.683594 4.320312 12.464844 4.484375 L 4.855469 10.171875 L 1.234375 10.171875 C 0.828125 10.171875 0.503906 10.5 0.503906 10.902344 L 0.503906 18.195312 C 0.503906 18.597656 0.828125 18.925781 1.234375 18.925781 L 4.855469 18.925781 L 12.464844 24.613281 C 12.59375 24.710938 12.746094 24.757812 12.902344 24.757812 C 13.011719 24.757812 13.125 24.734375 13.226562 24.679688 C 13.476562 24.558594 13.628906 24.304688 13.628906 24.027344 L 13.628906 5.066406 C 13.628906 4.792969 13.476562 4.539062 13.226562 4.417969 Z M 13.226562 4.417969 " fill-opacity="1" fill-rule="nonzero"/></g></svg>