<svg xmlns="http://www.w3.org/2000/svg" xmlns:xlink="http://www.w3.org/1999/xlink" width="40" zoomAndPan="magnify" viewBox="0 0 30 60" height="80" preserveAspectRatio="xMidYMid meet" version="1.0"><defs><g/></defs><g fill="#000000" fill-opacity="1"><g transform="translate(0.796875, 11.575299)"><g><path d="M 3.96875 -4.890625 C 4.695312 -4.890625 5.316406 -4.632812 5.828125 -4.125 C 6.335938 -3.613281 6.59375 -2.992188 6.59375 -2.265625 C 6.59375 -1.546875 6.335938 -0.929688 5.828125 -0.421875 C 5.316406 0.0859375 4.695312 0.34375 3.96875 0.34375 C 3.257812 0.34375 2.648438 0.0859375 2.140625 -0.421875 C 1.628906 -0.929688 1.375 -1.546875 1.375 -2.265625 C 1.375 -2.992188 1.628906 -3.613281 2.140625 -4.125 C 2.648438 -4.632812 3.257812 -4.890625 3.96875 -4.890625 Z M 3.96875 -4.890625 "/></g></g></g><g fill="#000000" fill-opacity="1"><g transform="translate(8.765625, 11.575299)"><g/></g></g><g fill="#000000" fill-opacity="1"><g transform="translate(14.997699, 11.575299)"><g/></g></g><g fill="#000000" fill-opacity="1"><g transform="translate(21.234374, 11.575299)"><g><path d="M 3.96875 -4.890625 C 4.695312 -4.890625 5.316406 -4.632812 5.828125 -4.125 C 6.335938 -3.613281 6.59375 -2.992188 6.59375 -2.265625 C 6.59375 -1.546875 6.335938 -0.929688 5.828125 -0.421875 C 5.316406 0.0859375 4.695312 0.34375 3.96875 0.34375 C 3.257812 0.34375 2.648438 0.0859375 2.140625 -0.421875 C 1.628906 -0.929688 1.375 -1.546875 1.375 -2.265625 C 1.375 -2.992188 1.628906 -3.613281 2.140625 -4.125 C 2.648438 -4.632812 3.257812 -4.890625 3.96875 -4.890625 Z M 3.96875 -4.890625 "/></g></g></g><g fill="#000000" fill-opacity="1"><g transform="translate(0.796875, 31.825298)"><g><path d="M 3.96875 -4.890625 C 4.695312 -4.890625 5.316406 -4.632812 5.828125 -4.125 C 6.335938 -3.613281 6.59375 -2.992188 6.59375 -2.265625 C 6.59375 -1.546875 6.335938 -0.929688 5.828125 -0.421875 C 5.316406 0.0859375 4.695312 0.34375 3.96875 0.34375 C 3.257812 0.34375 2.648438 0.0859375 2.140625 -0.421875 C 1.628906 -0.929688 1.375 -1.546875 1.375 -2.265625 C 1.375 -2.992188 1.628906 -3.613281 2.140625 -4.125 C 2.648438 -4.632812 3.257812 -4.890625 3.96875 -4.890625 Z M 3.96875 -4.890625 "/></g></g></g><g fill="#000000" fill-opacity="1"><g transform="translate(8.765625, 31.825298)"><g/></g></g><g fill="#000000" fill-opacity="1"><g transform="translate(14.997699, 31.825298)"><g/></g></g><g fill="#000000" fill-opacity="1"><g transform="translate(21.234374, 31.825298)"><g><path d="M 3.96875 -4.890625 C 4.695312 -4.890625 5.316406 -4.632812 5.828125 -4.125 C 6.335938 -3.613281 6.59375 -2.992188 6.59375 -2.265625 C 6.59375 -1.546875 6.335938 -0.929688 5.828125 -0.421875 C 5.316406 0.0859375 4.695312 0.34375 3.96875 0.34375 C 3.257812 0.34375 2.648438 0.0859375 2.140625 -0.421875 C 1.628906 -0.929688 1.375 -1.546875 1.375 -2.265625 C 1.375 -2.992188 1.628906 -3.613281 2.140625 -4.125 C 2.648438 -4.632812 3.257812 -4.890625 3.96875 -4.890625 Z M 3.96875 -4.890625 "/></g></g></g><g fill="#000000" fill-opacity="1"><g transform="translate(0.796875, 52.075297)"><g><path d="M 3.96875 -4.890625 C 4.695312 -4.890625 5.316406 -4.632812 5.828125 -4.125 C 6.335938 -3.613281 6.59375 -2.992188 6.59375 -2.265625 C 6.59375 -1.546875 6.335938 -0.929688 5.828125 -0.421875 C 5.316406 0.0859375 4.695312 0.34375 3.96875 0.34375 C 3.257812 0.34375 2.648438 0.0859375 2.140625 -0.421875 C 1.628906 -0.929688 1.375 -1.546875 1.375 -2.265625 C 1.375 -2.992188 1.628906 -3.613281 2.140625 -4.125 C 2.648438 -4.632812 3.257812 -4.890625 3.96875 -4.890625 Z M 3.96875 -4.890625 "/></g></g></g><g fill="#000000" fill-opacity="1"><g transform="translate(8.765625, 52.075297)"><g/></g></g><g fill="#000000" fill-opacity="1"><g transform="translate(14.997699, 52.075297)"><g/></g></g><g fill="#000000" fill-opacity="1"><g transform="translate(21.234374, 52.075297)"><g><path d="M 3.96875 -4.890625 C 4.695312 -4.890625 5.316406 -4.632812 5.828125 -4.125 C 6.335938 -3.613281 6.59375 -2.992188 6.59375 -2.265625 C 6.59375 -1.546875 6.335938 -0.929688 5.828125 -0.421875 C 5.316406 0.0859375 4.695312 0.34375 3.96875 0.34375 C 3.257812 0.34375 2.648438 0.0859375 2.140625 -0.421875 C 1.628906 -0.929688 1.375 -1.546875 1.375 -2.265625 C 1.375 -2.992188 1.628906 -3.613281 2.140625 -4.125 C 2.648438 -4.632812 3.257812 -4.890625 3.96875 -4.890625 Z M 3.96875 -4.890625 "/></g></g></g></svg>