<svg xmlns="http://www.w3.org/2000/svg" xmlns:xlink="http://www.w3.org/1999/xlink" width="40" zoomAndPan="magnify" viewBox="0 0 30 30.000001" height="40" preserveAspectRatio="xMidYMid meet" version="1.0"><defs><clipPath id="779e6818a8"><path d="M 0.484375 0 L 29.515625 0 L 29.515625 29 L 0.484375 29 Z M 0.484375 0 " clip-rule="nonzero"/></clipPath></defs><path stroke-linecap="butt" transform="matrix(0, 0.725806, -0.725806, 0, 12.168221, 12.412426)" fill="none" stroke-linejoin="miter" d="M 0.00225436 0.500868 L 5.798609 0.500868 " stroke="#ffffff" stroke-width="1" stroke-opacity="1" stroke-miterlimit="4"/><g clip-path="url(#779e6818a8)"><path fill="#820263" d="M 29.496094 14.496094 C 29.496094 10.492188 27.875 6.867188 25.25 4.246094 C 22.628906 1.621094 19.003906 0 15 0 C 11 0 7.375 1.621094 4.75 4.246094 C 2.128906 6.867188 0.507812 10.492188 0.507812 14.496094 C 0.507812 18.496094 2.128906 22.121094 4.75 24.746094 C 7.375 27.367188 11 28.988281 15 28.988281 C 19.003906 28.988281 22.628906 27.367188 25.25 24.746094 C 27.875 22.121094 29.496094 18.496094 29.496094 14.496094 " fill-opacity="1" fill-rule="evenodd"/></g><path fill="#ffffff" d="M 14.660156 11.367188 L 8.460938 5.167969 L 5.675781 7.957031 L 11.871094 14.152344 L 11.875 14.152344 C 12.0625 14.34375 12.0625 14.648438 11.875 14.835938 L 5.675781 21.035156 L 8.460938 23.820312 L 14.660156 17.625 C 14.847656 17.433594 15.15625 17.433594 15.34375 17.625 L 21.542969 23.820312 L 24.328125 21.035156 L 18.128906 14.835938 C 17.941406 14.648438 17.941406 14.34375 18.128906 14.152344 L 24.328125 7.957031 L 21.542969 5.167969 L 15.34375 11.363281 L 15.34375 11.367188 C 15.15625 11.554688 14.847656 11.554688 14.660156 11.367188 " fill-opacity="1" fill-rule="evenodd"/></svg>