<svg xmlns="http://www.w3.org/2000/svg" xmlns:xlink="http://www.w3.org/1999/xlink" width="50" zoomAndPan="magnify" viewBox="0 0 37.5 37.499999" height="50" preserveAspectRatio="xMidYMid meet" version="1.0"><defs><clipPath id="7b9f99f0b6"><path d="M 3.699219 3.699219 L 33.304688 3.699219 L 33.304688 33.304688 L 3.699219 33.304688 Z M 3.699219 3.699219 " clip-rule="nonzero"/></clipPath></defs><g clip-path="url(#7b9f99f0b6)"><path fill="#ffffff" d="M 33.375 28.863281 C 33.375 31.355469 31.355469 33.371094 28.867188 33.371094 L 8.210938 33.371094 C 5.71875 33.371094 3.703125 31.355469 3.703125 28.863281 L 3.703125 8.207031 C 3.703125 5.71875 5.71875 3.699219 8.210938 3.699219 L 28.867188 3.699219 C 31.355469 3.699219 33.375 5.71875 33.375 8.207031 Z M 33.375 28.863281 " fill-opacity="1" fill-rule="nonzero"/></g><path fill="#0b6e4f" d="M 15.433594 14.285156 C 15.433594 14.578125 15.378906 14.863281 15.265625 15.132812 C 15.152344 15.40625 14.992188 15.644531 14.785156 15.851562 C 14.578125 16.0625 14.339844 16.222656 14.066406 16.332031 C 13.796875 16.445312 13.511719 16.503906 13.21875 16.503906 C 12.925781 16.503906 12.640625 16.445312 12.371094 16.332031 C 12.097656 16.222656 11.859375 16.0625 11.652344 15.851562 C 11.441406 15.644531 11.28125 15.40625 11.171875 15.132812 C 11.058594 14.863281 11 14.578125 11 14.285156 C 11 13.992188 11.058594 13.707031 11.171875 13.4375 C 11.28125 13.164062 11.441406 12.925781 11.652344 12.71875 C 11.859375 12.511719 12.097656 12.351562 12.371094 12.238281 C 12.640625 12.125 12.925781 12.070312 13.21875 12.070312 C 13.511719 12.070312 13.796875 12.125 14.066406 12.238281 C 14.339844 12.351562 14.578125 12.511719 14.785156 12.71875 C 14.992188 12.925781 15.152344 13.164062 15.265625 13.4375 C 15.378906 13.707031 15.433594 13.992188 15.433594 14.285156 Z M 15.433594 14.285156 " fill-opacity="1" fill-rule="nonzero"/><path fill="#0b6e4f" d="M 11.308594 18.136719 L 15.117188 18.136719 L 15.117188 30.386719 L 11.308594 30.386719 Z M 11.308594 18.136719 " fill-opacity="1" fill-rule="nonzero"/><path fill="#0b6e4f" d="M 17.511719 18.136719 L 21.136719 18.136719 L 21.136719 30.386719 L 17.511719 30.386719 Z M 17.511719 18.136719 " fill-opacity="1" fill-rule="nonzero"/><path fill="#0b6e4f" d="M 17.667969 24.660156 L 21.292969 24.660156 L 21.292969 30.386719 L 17.667969 30.386719 Z M 17.667969 24.660156 " fill-opacity="1" fill-rule="nonzero"/><path fill="#0b6e4f" d="M 21.292969 24.660156 C 21.292969 24.660156 21.234375 23.070312 21.65625 22.242188 C 21.65625 22.242188 22.074219 21.226562 23.390625 21.21875 C 23.390625 21.21875 24.9375 20.949219 25.378906 22.484375 C 25.378906 22.484375 25.546875 23.332031 25.546875 23.691406 C 25.546875 24.050781 25.558594 30.386719 25.558594 30.386719 L 29.355469 30.386719 L 29.355469 23.371094 C 29.355469 23.371094 29.628906 19.40625 27.25 18.320312 C 27.25 18.320312 23.339844 16.5625 21.214844 19.789062 C 21.214844 19.789062 20.753906 20.109375 20.6875 19.214844 C 20.625 18.320312 20.082031 20.585938 20.066406 20.636719 C 20.050781 20.683594 20.6875 25.152344 20.6875 25.152344 Z M 21.292969 24.660156 " fill-opacity="1" fill-rule="nonzero"/></svg>