<svg xmlns="http://www.w3.org/2000/svg" xmlns:xlink="http://www.w3.org/1999/xlink" width="50" zoomAndPan="magnify" viewBox="0 0 37.5 37.499999" height="50" preserveAspectRatio="xMidYMid meet" version="1.0"><defs><clipPath id="526fdc3c0b"><path d="M 0 0 L 37.007812 0 L 37.007812 37.007812 L 0 37.007812 Z M 0 0 " clip-rule="nonzero"/></clipPath></defs><path fill="#0b6e4f" d="M 36.28125 21.40625 C 36.28125 29.621094 29.621094 36.28125 21.40625 36.28125 C 14.441406 36.28125 8.59375 31.496094 6.976562 25.035156 C 4.476562 15.054688 12.632812 5.589844 22.855469 6.601562 C 30.292969 7.285156 36.28125 13.617188 36.28125 21.40625 Z M 36.28125 21.40625 " fill-opacity="1" fill-rule="nonzero"/><path fill="#0b6e4f" d="M 33.121094 20.96875 C 33.203125 23.109375 32.703125 25.289062 31.558594 27.261719 C 29.492188 30.828125 25.664062 33.128906 21.40625 33.128906 C 14.773438 33.128906 9.445312 27.601562 9.6875 20.96875 C 9.757812 19.121094 10.261719 17.253906 11.253906 15.542969 C 13.355469 11.921875 17.125 9.789062 21.117188 9.683594 C 27.503906 9.515625 32.875 14.558594 33.121094 20.96875 Z M 33.121094 20.96875 " fill-opacity="1" fill-rule="nonzero"/><path fill="#0b6e4f" d="M 22.855469 21.324219 C 22.855469 21.515625 22.820312 21.703125 22.746094 21.878906 C 22.671875 22.058594 22.566406 22.214844 22.433594 22.351562 C 22.296875 22.484375 22.140625 22.589844 21.960938 22.664062 C 21.785156 22.738281 21.597656 22.773438 21.40625 22.773438 C 21.214844 22.773438 21.027344 22.738281 20.851562 22.664062 C 20.671875 22.589844 20.515625 22.484375 20.378906 22.351562 C 20.242188 22.214844 20.136719 22.058594 20.066406 21.878906 C 19.992188 21.703125 19.953125 21.515625 19.953125 21.324219 C 19.953125 21.132812 19.992188 20.945312 20.066406 20.769531 C 20.136719 20.589844 20.242188 20.433594 20.378906 20.296875 C 20.515625 20.160156 20.671875 20.058594 20.851562 19.984375 C 21.027344 19.910156 21.214844 19.871094 21.40625 19.871094 C 21.597656 19.871094 21.785156 19.910156 21.960938 19.984375 C 22.140625 20.058594 22.296875 20.160156 22.433594 20.296875 C 22.566406 20.433594 22.671875 20.589844 22.746094 20.769531 C 22.820312 20.945312 22.855469 21.132812 22.855469 21.324219 Z M 22.855469 21.324219 " fill-opacity="1" fill-rule="nonzero"/><path fill="#0b6e4f" d="M 17.414062 0.726562 L 25.398438 0.726562 L 25.398438 3.628906 L 17.414062 3.628906 Z M 17.414062 0.726562 " fill-opacity="1" fill-rule="nonzero"/><path fill="#0b6e4f" d="M 22.855469 3.628906 L 22.855469 6.601562 C 21.871094 6.503906 20.902344 6.503906 19.953125 6.597656 L 19.953125 3.628906 Z M 22.855469 3.628906 " fill-opacity="1" fill-rule="nonzero"/><g clip-path="url(#526fdc3c0b)"><path fill="#ffffff" d="M 23.582031 5.957031 L 23.582031 4.355469 L 25.398438 4.355469 C 25.796875 4.355469 26.121094 4.027344 26.121094 3.628906 L 26.121094 0.726562 C 26.121094 0.324219 25.796875 0 25.398438 0 L 17.414062 0 C 17.015625 0 16.6875 0.324219 16.6875 0.726562 L 16.6875 3.628906 C 16.6875 4.027344 17.015625 4.355469 17.414062 4.355469 L 19.230469 4.355469 L 19.230469 5.953125 C 13.164062 6.800781 8.125 11.160156 6.421875 17.050781 L 2.175781 17.050781 C 1.777344 17.050781 1.453125 17.375 1.453125 17.777344 C 1.453125 18.179688 1.777344 18.503906 2.175781 18.503906 L 6.074219 18.503906 C 5.941406 19.21875 5.855469 19.949219 5.824219 20.679688 L 0.726562 20.679688 C 0.324219 20.679688 0 21.003906 0 21.40625 C 0 21.804688 0.324219 22.132812 0.726562 22.132812 L 5.820312 22.132812 C 5.84375 22.652344 5.90625 23.410156 6.074219 24.308594 L 2.175781 24.308594 C 1.777344 24.308594 1.453125 24.632812 1.453125 25.035156 C 1.453125 25.433594 1.777344 25.757812 2.175781 25.757812 L 6.421875 25.757812 C 8.289062 32.183594 14.21875 37.007812 21.40625 37.007812 C 30.007812 37.007812 37.007812 30.007812 37.007812 21.40625 C 37.007812 13.625 31.265625 7.03125 23.582031 5.957031 Z M 18.140625 1.453125 L 24.671875 1.453125 L 24.671875 2.902344 L 18.140625 2.902344 Z M 22.132812 4.355469 L 22.132812 5.820312 C 21.648438 5.796875 21.164062 5.796875 20.679688 5.820312 L 20.679688 4.355469 Z M 21.40625 35.554688 C 13.605469 35.554688 7.324219 29.296875 7.257812 21.523438 C 7.1875 13.550781 13.664062 7.242188 21.40625 7.253906 C 29.246094 7.265625 35.554688 13.5625 35.554688 21.40625 C 35.554688 29.207031 29.207031 35.554688 21.40625 35.554688 Z M 21.40625 35.554688 " fill-opacity="1" fill-rule="nonzero"/></g><path fill="#ffffff" d="M 33.847656 21.3125 C 33.792969 14.480469 28.246094 8.953125 21.40625 8.953125 C 11.890625 8.953125 5.824219 19.292969 10.609375 27.59375 C 10.640625 27.652344 10.625 27.625 10.648438 27.660156 C 12.84375 31.414062 16.855469 33.855469 21.40625 33.855469 C 28.1875 33.855469 33.808594 28.367188 33.851562 21.488281 C 33.855469 21.421875 33.855469 21.375 33.847656 21.3125 Z M 27.523438 30.539062 L 26.6875 29.09375 C 26.484375 28.746094 26.042969 28.625 25.695312 28.828125 C 25.347656 29.027344 25.230469 29.472656 25.429688 29.816406 L 26.265625 31.269531 C 24.976562 31.90625 23.570312 32.285156 22.132812 32.378906 L 22.132812 30.703125 C 22.132812 30.300781 21.808594 29.976562 21.40625 29.976562 C 21.007812 29.976562 20.683594 30.300781 20.683594 30.703125 L 20.683594 32.378906 C 19.214844 32.285156 17.8125 31.902344 16.542969 31.277344 L 17.386719 29.820312 C 17.585938 29.472656 17.46875 29.027344 17.121094 28.828125 C 16.773438 28.628906 16.332031 28.746094 16.128906 29.09375 L 15.289062 30.554688 C 14.097656 29.757812 13.066406 28.734375 12.261719 27.523438 L 13.71875 26.683594 C 14.0625 26.480469 14.183594 26.039062 13.984375 25.691406 C 13.78125 25.34375 13.339844 25.222656 12.992188 25.425781 L 11.539062 26.265625 C 10.914062 24.992188 10.527344 23.601562 10.429688 22.128906 L 12.109375 22.128906 C 12.507812 22.128906 12.832031 21.804688 12.832031 21.40625 C 12.832031 21.003906 12.507812 20.679688 12.109375 20.679688 L 10.433594 20.679688 C 10.527344 19.25 10.898438 17.84375 11.539062 16.546875 L 12.988281 17.382812 C 13.335938 17.582031 13.78125 17.464844 13.980469 17.117188 C 14.183594 16.769531 14.0625 16.328125 13.714844 16.125 L 12.265625 15.289062 C 13.070312 14.089844 14.101562 13.0625 15.292969 12.265625 L 16.128906 13.710938 C 16.261719 13.945312 16.507812 14.074219 16.757812 14.074219 C 17.308594 14.074219 17.664062 13.472656 17.382812 12.988281 L 16.550781 11.539062 C 17.855469 10.898438 19.261719 10.53125 20.679688 10.4375 L 20.679688 12.105469 C 20.679688 12.503906 21.003906 12.828125 21.40625 12.828125 C 21.804688 12.828125 22.132812 12.503906 22.132812 12.105469 L 22.132812 10.433594 C 23.554688 10.527344 24.960938 10.894531 26.261719 11.539062 L 25.425781 12.988281 C 25.226562 13.332031 25.347656 13.777344 25.691406 13.976562 C 26.039062 14.175781 26.484375 14.058594 26.683594 13.710938 L 27.519531 12.265625 C 28.71875 13.070312 29.746094 14.097656 30.542969 15.289062 L 29.097656 16.125 C 28.75 16.324219 28.628906 16.769531 28.832031 17.113281 C 29.03125 17.464844 29.476562 17.582031 29.820312 17.378906 L 31.269531 16.546875 C 31.910156 17.851562 32.28125 19.257812 32.375 20.675781 L 30.707031 20.675781 C 30.304688 20.675781 29.980469 21 29.980469 21.402344 C 29.980469 21.800781 30.304688 22.128906 30.707031 22.128906 L 32.378906 22.128906 C 32.285156 23.550781 31.917969 24.957031 31.273438 26.257812 L 29.824219 25.421875 C 29.476562 25.222656 29.03125 25.339844 28.832031 25.6875 C 28.632812 26.035156 28.75 26.480469 29.097656 26.679688 L 30.546875 27.515625 C 29.746094 28.710938 28.714844 29.738281 27.523438 30.539062 Z M 27.523438 30.539062 " fill-opacity="1" fill-rule="nonzero"/><path fill="#ffffff" d="M 26.847656 20.597656 L 23.457031 20.597656 C 23.238281 19.980469 22.75 19.492188 22.132812 19.273438 L 22.132812 15.15625 C 22.132812 14.753906 21.804688 14.429688 21.40625 14.429688 C 21.003906 14.429688 20.679688 14.753906 20.679688 15.15625 L 20.679688 19.273438 C 19.835938 19.570312 19.230469 20.378906 19.230469 21.324219 C 19.230469 22.523438 20.207031 23.5 21.40625 23.5 C 22.351562 23.5 23.160156 22.894531 23.457031 22.050781 L 26.847656 22.050781 C 27.25 22.050781 27.574219 21.722656 27.574219 21.324219 C 27.574219 20.921875 27.25 20.597656 26.847656 20.597656 Z M 21.40625 22.050781 C 21.003906 22.050781 20.679688 21.722656 20.679688 21.324219 C 20.679688 20.921875 21.003906 20.597656 21.40625 20.597656 C 21.804688 20.597656 22.132812 20.921875 22.132812 21.324219 C 22.132812 21.722656 21.804688 22.050781 21.40625 22.050781 Z M 21.40625 22.050781 " fill-opacity="1" fill-rule="nonzero"/></svg>