<svg xmlns="http://www.w3.org/2000/svg" xmlns:xlink="http://www.w3.org/1999/xlink" width="50" zoomAndPan="magnify" viewBox="0 0 37.5 37.499999" height="50" preserveAspectRatio="xMidYMid meet" version="1.0"><defs><clipPath id="d03200cfe1"><path d="M 1.851562 2.191406 L 35.15625 2.191406 L 35.15625 34.757812 L 1.851562 34.757812 Z M 1.851562 2.191406 " clip-rule="nonzero"/></clipPath></defs><g clip-path="url(#d03200cfe1)"><path fill="#ffffff" d="M 18.453125 2.191406 C 9.273438 2.191406 1.851562 9.652344 1.851562 18.886719 C 1.851562 26.265625 6.605469 32.511719 13.203125 34.722656 C 14.027344 34.890625 14.332031 34.363281 14.332031 33.921875 C 14.332031 33.535156 14.304688 32.210938 14.304688 30.828125 C 9.683594 31.824219 8.722656 28.835938 8.722656 28.835938 C 7.980469 26.902344 6.882812 26.40625 6.882812 26.40625 C 5.371094 25.382812 6.992188 25.382812 6.992188 25.382812 C 8.667969 25.492188 9.546875 27.09375 9.546875 27.09375 C 11.03125 29.636719 13.421875 28.917969 14.386719 28.476562 C 14.523438 27.398438 14.964844 26.652344 15.429688 26.238281 C 11.746094 25.851562 7.871094 24.414062 7.871094 18 C 7.871094 16.175781 8.53125 14.683594 9.574219 13.523438 C 9.410156 13.109375 8.832031 11.394531 9.742188 9.101562 C 9.742188 9.101562 11.140625 8.660156 14.304688 10.8125 C 15.664062 10.449219 17.046875 10.261719 18.453125 10.261719 C 19.855469 10.261719 21.285156 10.457031 22.605469 10.8125 C 25.765625 8.660156 27.167969 9.101562 27.167969 9.101562 C 28.074219 11.394531 27.496094 13.109375 27.332031 13.523438 C 28.402344 14.683594 29.035156 16.175781 29.035156 18 C 29.035156 24.414062 25.160156 25.824219 21.449219 26.238281 C 22.054688 26.765625 22.578125 27.757812 22.578125 29.335938 C 22.578125 31.574219 22.550781 33.371094 22.550781 33.921875 C 22.550781 34.363281 22.851562 34.890625 23.675781 34.726562 C 30.273438 32.511719 35.027344 26.265625 35.027344 18.886719 C 35.054688 9.652344 27.605469 2.191406 18.453125 2.191406 Z M 18.453125 2.191406 " fill-opacity="1" fill-rule="evenodd"/></g></svg>