<svg xmlns="http://www.w3.org/2000/svg" xmlns:xlink="http://www.w3.org/1999/xlink" width="40" zoomAndPan="magnify" viewBox="0 0 30 30.000001" height="40" preserveAspectRatio="xMidYMid meet" version="1.0"><defs><clipPath id="e177f59c60"><path d="M 0.484375 4.265625 L 13.546875 4.265625 L 13.546875 24.589844 L 0.484375 24.589844 Z M 0.484375 4.265625 " clip-rule="nonzero"/></clipPath><clipPath id="76b4c96670"><path d="M 22 1 L 29.515625 1 L 29.515625 28 L 22 28 Z M 22 1 " clip-rule="nonzero"/></clipPath><clipPath id="61126e8f12"><path d="M 23.636719 1.480469 L 36.46875 14.308594 L 23.636719 27.140625 L 10.804688 14.308594 Z M 23.636719 1.480469 " clip-rule="nonzero"/></clipPath><clipPath id="3a5945d990"><path d="M 23.636719 1.480469 L 36.46875 14.308594 L 23.636719 27.140625 L 10.804688 14.308594 Z M 23.636719 1.480469 " clip-rule="nonzero"/></clipPath><clipPath id="de57f0f37e"><path d="M 15.828125 8.789062 L 20 8.789062 L 20 20.402344 L 15.828125 20.402344 Z M 15.828125 8.789062 " clip-rule="nonzero"/></clipPath><clipPath id="c98a7ef9f1"><path d="M 19 5 L 25 5 L 25 24 L 19 24 Z M 19 5 " clip-rule="nonzero"/></clipPath><clipPath id="1a789cf0e8"><path d="M 30.011719 14.515625 L 20.257812 24.265625 L 10.507812 14.515625 L 20.257812 4.765625 Z M 30.011719 14.515625 " clip-rule="nonzero"/></clipPath><clipPath id="56f21b2780"><path d="M 30.011719 14.515625 L 20.257812 24.265625 L 10.507812 14.515625 L 20.257812 4.765625 Z M 30.011719 14.515625 " clip-rule="nonzero"/></clipPath><clipPath id="e0b63ce7e8"><path d="M 0.484375 4.265625 L 13.546875 4.265625 L 13.546875 24.589844 L 0.484375 24.589844 Z M 0.484375 4.265625 " clip-rule="nonzero"/></clipPath></defs><g clip-path="url(#e177f59c60)"><path fill="#820263" d="M 13.226562 4.417969 C 12.980469 4.292969 12.683594 4.320312 12.464844 4.484375 L 4.855469 10.171875 L 1.234375 10.171875 C 0.828125 10.171875 0.503906 10.5 0.503906 10.902344 L 0.503906 18.195312 C 0.503906 18.597656 0.828125 18.925781 1.234375 18.925781 L 4.855469 18.925781 L 12.464844 24.613281 C 12.59375 24.710938 12.746094 24.757812 12.902344 24.757812 C 13.011719 24.757812 13.125 24.734375 13.226562 24.679688 C 13.476562 24.558594 13.628906 24.304688 13.628906 24.027344 L 13.628906 5.066406 C 13.628906 4.792969 13.476562 4.539062 13.226562 4.417969 Z M 13.226562 4.417969 " fill-opacity="1" fill-rule="nonzero"/></g><g clip-path="url(#76b4c96670)"><g clip-path="url(#61126e8f12)"><g clip-path="url(#3a5945d990)"><path fill="#820263" d="M 22.988281 26.894531 C 22.628906 26.535156 22.628906 25.953125 22.988281 25.597656 C 29.101562 19.484375 29.101562 9.539062 22.988281 3.425781 C 22.628906 3.066406 22.628906 2.488281 22.988281 2.128906 C 23.347656 1.769531 23.929688 1.769531 24.285156 2.128906 C 25.957031 3.800781 27.25 5.75 28.132812 7.921875 C 28.984375 10.019531 29.414062 12.238281 29.414062 14.507812 C 29.414062 16.78125 28.980469 19 28.132812 21.097656 C 27.25 23.269531 25.957031 25.21875 24.285156 26.890625 C 23.929688 27.25 23.347656 27.25 22.988281 26.894531 Z M 22.988281 26.894531 " fill-opacity="1" fill-rule="nonzero"/></g></g></g><g clip-path="url(#de57f0f37e)"><path fill="#820263" d="M 15.71875 19.3125 C 15.714844 19.074219 15.800781 18.875 15.964844 18.707031 C 16.242188 18.429688 16.484375 18.128906 16.703125 17.804688 C 16.917969 17.480469 17.097656 17.140625 17.246094 16.78125 C 17.394531 16.421875 17.507812 16.050781 17.582031 15.667969 C 17.660156 15.285156 17.699219 14.902344 17.699219 14.511719 C 17.699219 14.121094 17.660156 13.738281 17.582031 13.355469 C 17.507812 12.972656 17.394531 12.601562 17.246094 12.242188 C 17.097656 11.882812 16.917969 11.542969 16.703125 11.21875 C 16.484375 10.894531 16.242188 10.59375 15.964844 10.316406 C 15.789062 10.152344 15.699219 9.949219 15.695312 9.707031 C 15.691406 9.464844 15.777344 9.257812 15.949219 9.085938 C 16.121094 8.914062 16.328125 8.832031 16.570312 8.835938 C 16.8125 8.839844 17.015625 8.933594 17.179688 9.109375 C 17.53125 9.464844 17.847656 9.851562 18.125 10.269531 C 18.402344 10.6875 18.640625 11.128906 18.828125 11.589844 C 19.019531 12.054688 19.164062 12.53125 19.261719 13.023438 C 19.359375 13.515625 19.410156 14.011719 19.410156 14.511719 C 19.410156 15.015625 19.359375 15.511719 19.261719 16 C 19.164062 16.492188 19.019531 16.972656 18.828125 17.433594 C 18.640625 17.898438 18.402344 18.339844 18.125 18.753906 C 17.847656 19.171875 17.53125 19.558594 17.179688 19.914062 C 17.058594 20.035156 16.910156 20.117188 16.742188 20.148438 C 16.570312 20.183594 16.40625 20.167969 16.246094 20.101562 C 16.085938 20.035156 15.957031 19.929688 15.859375 19.785156 C 15.765625 19.640625 15.71875 19.484375 15.71875 19.308594 Z M 15.71875 19.3125 " fill-opacity="1" fill-rule="nonzero"/></g><g clip-path="url(#c98a7ef9f1)"><g clip-path="url(#1a789cf0e8)"><g clip-path="url(#56f21b2780)"><path fill="#820263" d="M 20.839844 23.6875 C 22.078125 22.449219 23.035156 21.003906 23.6875 19.394531 C 24.320312 17.839844 24.636719 16.199219 24.636719 14.515625 C 24.636719 12.832031 24.320312 11.191406 23.6875 9.636719 C 23.035156 8.027344 22.078125 6.582031 20.839844 5.34375 C 20.546875 5.050781 20.070312 5.050781 19.777344 5.34375 C 19.484375 5.636719 19.484375 6.117188 19.777344 6.410156 C 24.246094 10.878906 24.246094 18.152344 19.777344 22.621094 C 19.484375 22.914062 19.484375 23.394531 19.777344 23.6875 C 20.070312 23.980469 20.546875 23.980469 20.839844 23.6875 Z M 20.839844 23.6875 " fill-opacity="1" fill-rule="nonzero"/></g></g></g><g clip-path="url(#e0b63ce7e8)"><path fill="#820263" d="M 13.226562 4.417969 C 12.980469 4.292969 12.683594 4.320312 12.464844 4.484375 L 4.855469 10.171875 L 1.234375 10.171875 C 0.828125 10.171875 0.503906 10.5 0.503906 10.902344 L 0.503906 18.195312 C 0.503906 18.597656 0.828125 18.925781 1.234375 18.925781 L 4.855469 18.925781 L 12.464844 24.613281 C 12.59375 24.710938 12.746094 24.757812 12.902344 24.757812 C 13.011719 24.757812 13.125 24.734375 13.226562 24.679688 C 13.476562 24.558594 13.628906 24.304688 13.628906 24.027344 L 13.628906 5.066406 C 13.628906 4.792969 13.476562 4.539062 13.226562 4.417969 Z M 13.226562 4.417969 " fill-opacity="1" fill-rule="nonzero"/></g></svg>