<svg xmlns="http://www.w3.org/2000/svg" xmlns:xlink="http://www.w3.org/1999/xlink" width="50" zoomAndPan="magnify" viewBox="0 0 37.5 37.499999" height="50" preserveAspectRatio="xMidYMid meet" version="1.0"><defs><clipPath id="a3670033b2"><path d="M 0 0 L 36.265625 0 L 36.265625 36.265625 L 0 36.265625 Z M 0 0 " clip-rule="nonzero"/></clipPath></defs><path fill="#ffffff" d="M 35.828125 21.140625 C 35.828125 29.25 29.25 35.828125 21.140625 35.828125 C 14.261719 35.828125 8.488281 31.101562 6.890625 24.722656 C 4.421875 14.863281 12.476562 5.519531 22.570312 6.519531 C 29.914062 7.195312 35.828125 13.445312 35.828125 21.140625 Z M 35.828125 21.140625 " fill-opacity="1" fill-rule="nonzero"/><path fill="#fa9f42" d="M 32.707031 20.707031 C 32.789062 22.820312 32.292969 24.972656 31.164062 26.921875 C 29.125 30.445312 25.34375 32.714844 21.136719 32.714844 C 14.585938 32.714844 9.324219 27.257812 9.566406 20.707031 C 9.636719 18.882812 10.132812 17.039062 11.113281 15.347656 C 13.1875 11.769531 16.914062 9.667969 20.851562 9.5625 C 27.160156 9.394531 32.460938 14.375 32.707031 20.707031 Z M 32.707031 20.707031 " fill-opacity="1" fill-rule="nonzero"/><path fill="#ffffff" d="M 22.570312 21.058594 C 22.570312 21.246094 22.535156 21.429688 22.460938 21.605469 C 22.390625 21.78125 22.285156 21.9375 22.152344 22.070312 C 22.015625 22.203125 21.863281 22.308594 21.6875 22.382812 C 21.511719 22.453125 21.328125 22.492188 21.136719 22.492188 C 20.949219 22.492188 20.765625 22.453125 20.589844 22.382812 C 20.414062 22.308594 20.257812 22.203125 20.125 22.070312 C 19.992188 21.9375 19.886719 21.78125 19.8125 21.605469 C 19.742188 21.429688 19.707031 21.246094 19.707031 21.058594 C 19.707031 20.867188 19.742188 20.683594 19.8125 20.507812 C 19.886719 20.332031 19.992188 20.179688 20.125 20.042969 C 20.257812 19.910156 20.414062 19.804688 20.589844 19.734375 C 20.765625 19.660156 20.949219 19.625 21.136719 19.625 C 21.328125 19.625 21.511719 19.660156 21.6875 19.734375 C 21.863281 19.804688 22.015625 19.910156 22.152344 20.042969 C 22.285156 20.179688 22.390625 20.332031 22.460938 20.507812 C 22.535156 20.683594 22.570312 20.867188 22.570312 21.058594 Z M 22.570312 21.058594 " fill-opacity="1" fill-rule="nonzero"/><path fill="#fa9f42" d="M 17.195312 0.714844 L 25.078125 0.714844 L 25.078125 3.582031 L 17.195312 3.582031 Z M 17.195312 0.714844 " fill-opacity="1" fill-rule="nonzero"/><path fill="#ffffff" d="M 22.570312 3.582031 L 22.570312 6.519531 C 21.597656 6.421875 20.640625 6.425781 19.707031 6.515625 L 19.707031 3.582031 Z M 22.570312 3.582031 " fill-opacity="1" fill-rule="nonzero"/><g clip-path="url(#a3670033b2)"><path fill="#820263" d="M 23.289062 5.882812 L 23.289062 4.300781 L 25.078125 4.300781 C 25.476562 4.300781 25.796875 3.976562 25.796875 3.582031 L 25.796875 0.714844 C 25.796875 0.320312 25.476562 0 25.078125 0 L 17.195312 0 C 16.800781 0 16.480469 0.320312 16.480469 0.714844 L 16.480469 3.582031 C 16.480469 3.976562 16.800781 4.300781 17.195312 4.300781 L 18.988281 4.300781 L 18.988281 5.878906 C 13 6.714844 8.023438 11.023438 6.339844 16.839844 L 2.148438 16.839844 C 1.753906 16.839844 1.433594 17.160156 1.433594 17.554688 C 1.433594 17.953125 1.753906 18.273438 2.148438 18.273438 L 6 18.273438 C 5.867188 18.980469 5.785156 19.699219 5.75 20.421875 L 0.714844 20.421875 C 0.320312 20.421875 0 20.742188 0 21.136719 C 0 21.535156 0.320312 21.855469 0.714844 21.855469 L 5.75 21.855469 C 5.769531 22.367188 5.832031 23.117188 6 24.003906 L 2.148438 24.003906 C 1.753906 24.003906 1.433594 24.324219 1.433594 24.722656 C 1.433594 25.117188 1.753906 25.4375 2.148438 25.4375 L 6.339844 25.4375 C 8.1875 31.78125 14.039062 36.542969 21.140625 36.542969 C 29.632812 36.542969 36.542969 29.632812 36.542969 21.140625 C 36.542969 13.453125 30.875 6.945312 23.289062 5.882812 Z M 17.914062 1.433594 L 24.363281 1.433594 L 24.363281 2.867188 L 17.914062 2.867188 Z M 21.855469 4.300781 L 21.855469 5.75 C 21.375 5.726562 20.898438 5.722656 20.421875 5.746094 L 20.421875 4.300781 Z M 21.140625 35.109375 C 13.433594 35.109375 7.234375 28.933594 7.167969 21.253906 C 7.097656 13.382812 13.492188 7.152344 21.136719 7.164062 C 28.882812 7.175781 35.109375 13.394531 35.109375 21.140625 C 35.109375 28.84375 28.84375 35.109375 21.140625 35.109375 Z M 21.140625 35.109375 " fill-opacity="1" fill-rule="nonzero"/></g><path fill="#820263" d="M 33.425781 21.046875 C 33.371094 14.296875 27.894531 8.84375 21.136719 8.84375 C 11.742188 8.84375 5.75 19.054688 10.476562 27.25 C 10.507812 27.304688 10.492188 27.277344 10.515625 27.3125 C 12.683594 31.019531 16.644531 33.429688 21.136719 33.429688 C 27.835938 33.429688 33.386719 28.011719 33.425781 21.21875 C 33.433594 21.15625 33.433594 21.109375 33.425781 21.046875 Z M 27.179688 30.160156 L 26.351562 28.730469 C 26.15625 28.386719 25.714844 28.269531 25.375 28.464844 C 25.03125 28.664062 24.914062 29.101562 25.113281 29.445312 L 25.9375 30.878906 C 24.664062 31.507812 23.277344 31.878906 21.855469 31.972656 L 21.855469 30.316406 C 21.855469 29.921875 21.535156 29.601562 21.140625 29.601562 C 20.746094 29.601562 20.425781 29.921875 20.425781 30.316406 L 20.425781 31.976562 C 18.972656 31.882812 17.589844 31.503906 16.335938 30.886719 L 17.171875 29.445312 C 17.367188 29.105469 17.25 28.664062 16.90625 28.46875 C 16.566406 28.269531 16.125 28.386719 15.929688 28.730469 L 15.097656 30.171875 C 13.921875 29.386719 12.902344 28.375 12.105469 27.179688 L 13.546875 26.347656 C 13.886719 26.148438 14.007812 25.710938 13.808594 25.371094 C 13.609375 25.027344 13.171875 24.910156 12.828125 25.105469 L 11.394531 25.9375 C 10.777344 24.679688 10.394531 23.304688 10.300781 21.851562 L 11.957031 21.851562 C 12.351562 21.851562 12.671875 21.53125 12.671875 21.136719 C 12.671875 20.742188 12.351562 20.421875 11.957031 20.421875 L 10.300781 20.421875 C 10.394531 19.011719 10.761719 17.621094 11.398438 16.339844 L 12.828125 17.164062 C 13.167969 17.363281 13.609375 17.246094 13.804688 16.902344 C 14.003906 16.5625 13.886719 16.121094 13.542969 15.925781 L 12.113281 15.097656 C 12.90625 13.914062 13.925781 12.898438 15.101562 12.113281 L 15.925781 13.542969 C 16.058594 13.769531 16.300781 13.898438 16.546875 13.898438 C 17.09375 13.898438 17.445312 13.304688 17.167969 12.824219 L 16.34375 11.394531 C 17.632812 10.761719 19.019531 10.398438 20.421875 10.304688 L 20.421875 11.953125 C 20.421875 12.347656 20.742188 12.667969 21.136719 12.667969 C 21.535156 12.667969 21.855469 12.347656 21.855469 11.953125 L 21.855469 10.304688 C 23.257812 10.394531 24.648438 10.757812 25.933594 11.394531 L 25.109375 12.824219 C 24.910156 13.167969 25.027344 13.605469 25.371094 13.804688 C 25.714844 14 26.152344 13.882812 26.351562 13.539062 L 27.175781 12.113281 C 28.359375 12.90625 29.375 13.921875 30.160156 15.097656 L 28.734375 15.921875 C 28.390625 16.121094 28.273438 16.558594 28.46875 16.902344 C 28.667969 17.246094 29.109375 17.359375 29.449219 17.164062 L 30.878906 16.339844 C 31.511719 17.628906 31.875 19.015625 31.96875 20.417969 L 30.320312 20.417969 C 29.925781 20.417969 29.605469 20.738281 29.605469 21.132812 C 29.605469 21.53125 29.925781 21.851562 30.320312 21.851562 L 31.972656 21.851562 C 31.882812 23.253906 31.519531 24.644531 30.882812 25.929688 L 29.449219 25.105469 C 29.109375 24.90625 28.671875 25.023438 28.472656 25.367188 C 28.273438 25.710938 28.390625 26.148438 28.734375 26.347656 L 30.164062 27.171875 C 29.375 28.351562 28.359375 29.367188 27.179688 30.160156 Z M 27.179688 30.160156 " fill-opacity="1" fill-rule="nonzero"/><path fill="#820263" d="M 26.511719 20.339844 L 23.164062 20.339844 C 22.949219 19.730469 22.464844 19.246094 21.855469 19.03125 L 21.855469 14.964844 C 21.855469 14.570312 21.535156 14.25 21.136719 14.25 C 20.742188 14.25 20.421875 14.570312 20.421875 14.964844 L 20.421875 19.03125 C 19.585938 19.328125 18.988281 20.125 18.988281 21.058594 C 18.988281 22.242188 19.953125 23.207031 21.136719 23.207031 C 22.074219 23.207031 22.867188 22.609375 23.164062 21.773438 L 26.511719 21.773438 C 26.90625 21.773438 27.230469 21.453125 27.230469 21.058594 C 27.230469 20.660156 26.90625 20.339844 26.511719 20.339844 Z M 21.136719 21.773438 C 20.742188 21.773438 20.421875 21.453125 20.421875 21.058594 C 20.421875 20.664062 20.742188 20.339844 21.136719 20.339844 C 21.535156 20.339844 21.855469 20.664062 21.855469 21.058594 C 21.855469 21.453125 21.535156 21.773438 21.136719 21.773438 Z M 21.136719 21.773438 " fill-opacity="1" fill-rule="nonzero"/></svg>