<svg xmlns="http://www.w3.org/2000/svg" xmlns:xlink="http://www.w3.org/1999/xlink" width="40" zoomAndPan="magnify" viewBox="0 0 30 30.000001" height="40" preserveAspectRatio="xMidYMid meet" version="1.0"><defs><clipPath id="09dca93199"><path d="M 8.09375 5.988281 L 21.882812 5.988281 L 21.882812 23.40625 L 8.09375 23.40625 Z M 8.09375 5.988281 " clip-rule="nonzero"/></clipPath></defs><path stroke-linecap="butt" transform="matrix(0, 0.725806, -0.725806, 0, 12.168221, 12.412426)" fill="none" stroke-linejoin="miter" d="M 0.00225436 0.500868 L 5.798609 0.500868 " stroke="#ffffff" stroke-width="1" stroke-opacity="1" stroke-miterlimit="4"/><g clip-path="url(#09dca93199)"><path fill="#820263" d="M 13.78125 7.207031 L 13.78125 21.824219 C 13.78125 21.988281 13.75 22.144531 13.6875 22.292969 C 13.625 22.441406 13.539062 22.574219 13.421875 22.6875 C 13.308594 22.800781 13.175781 22.890625 13.027344 22.953125 C 12.878906 23.011719 12.722656 23.042969 12.5625 23.042969 L 9.3125 23.042969 C 9.152344 23.042969 8.996094 23.011719 8.847656 22.953125 C 8.699219 22.890625 8.566406 22.800781 8.453125 22.6875 C 8.335938 22.574219 8.25 22.441406 8.1875 22.292969 C 8.125 22.144531 8.09375 21.988281 8.09375 21.824219 L 8.09375 7.207031 C 8.09375 7.042969 8.125 6.890625 8.1875 6.738281 C 8.25 6.589844 8.335938 6.457031 8.453125 6.34375 C 8.566406 6.230469 8.699219 6.140625 8.847656 6.082031 C 8.996094 6.019531 9.152344 5.988281 9.3125 5.988281 L 12.5625 5.988281 C 12.722656 5.988281 12.878906 6.019531 13.027344 6.082031 C 13.175781 6.140625 13.308594 6.230469 13.421875 6.34375 C 13.539062 6.457031 13.625 6.589844 13.6875 6.738281 C 13.75 6.890625 13.78125 7.042969 13.78125 7.207031 Z M 20.683594 5.988281 L 17.433594 5.988281 C 17.273438 5.988281 17.117188 6.019531 16.96875 6.082031 C 16.820312 6.140625 16.6875 6.230469 16.574219 6.34375 C 16.460938 6.457031 16.371094 6.589844 16.308594 6.738281 C 16.246094 6.890625 16.214844 7.042969 16.214844 7.207031 L 16.214844 21.824219 C 16.214844 21.988281 16.246094 22.144531 16.308594 22.292969 C 16.371094 22.441406 16.460938 22.574219 16.574219 22.6875 C 16.6875 22.800781 16.820312 22.890625 16.96875 22.953125 C 17.117188 23.011719 17.273438 23.042969 17.433594 23.042969 L 20.683594 23.042969 C 20.84375 23.042969 21 23.011719 21.148438 22.953125 C 21.300781 22.890625 21.429688 22.800781 21.546875 22.6875 C 21.660156 22.574219 21.746094 22.441406 21.808594 22.292969 C 21.871094 22.144531 21.902344 21.988281 21.902344 21.824219 L 21.902344 7.207031 C 21.902344 7.042969 21.871094 6.890625 21.808594 6.738281 C 21.746094 6.589844 21.660156 6.457031 21.546875 6.34375 C 21.429688 6.230469 21.300781 6.140625 21.148438 6.082031 C 21 6.019531 20.84375 5.988281 20.683594 5.988281 Z M 20.683594 5.988281 " fill-opacity="1" fill-rule="nonzero"/></g></svg>