<svg xmlns="http://www.w3.org/2000/svg" xmlns:xlink="http://www.w3.org/1999/xlink" width="40" zoomAndPan="magnify" viewBox="0 0 30 30.000001" height="40" preserveAspectRatio="xMidYMid meet" version="1.0"><defs><clipPath id="5f9cc16a47"><path d="M 9.398438 5.304688 L 23.1875 5.304688 L 23.1875 23.449219 L 9.398438 23.449219 Z M 9.398438 5.304688 " clip-rule="nonzero"/></clipPath></defs><path stroke-linecap="butt" transform="matrix(0, 0.725806, -0.725806, 0, 12.168221, 12.412426)" fill="none" stroke-linejoin="miter" d="M 0.00225436 0.500868 L 5.798609 0.500868 " stroke="#ffffff" stroke-width="1" stroke-opacity="1" stroke-miterlimit="4"/><g clip-path="url(#5f9cc16a47)"><path fill="#820263" d="M 10.632812 23.710938 C 11.035156 23.710938 11.496094 23.539062 11.96875 23.207031 L 22.191406 16.214844 C 22.851562 15.769531 23.210938 15.152344 23.210938 14.507812 C 23.210938 13.859375 22.851562 13.242188 22.191406 12.796875 L 11.984375 5.804688 C 11.507812 5.476562 11.035156 5.316406 10.632812 5.316406 C 9.871094 5.316406 9.398438 5.933594 9.398438 6.953125 L 9.398438 22.074219 C 9.398438 23.09375 9.871094 23.710938 10.632812 23.710938 Z M 10.632812 23.710938 " fill-opacity="1" fill-rule="nonzero"/></g></svg>