<svg xmlns="http://www.w3.org/2000/svg" xmlns:xlink="http://www.w3.org/1999/xlink" width="40" zoomAndPan="magnify" viewBox="0 0 30 30.000001" height="40" preserveAspectRatio="xMidYMid meet" version="1.0"><defs><clipPath id="4addffac62"><path d="M 0.484375 0 L 29.515625 0 L 29.515625 29.03125 L 0.484375 29.03125 Z M 0.484375 0 " clip-rule="nonzero"/></clipPath></defs><path stroke-linecap="butt" transform="matrix(0, 0.725806, -0.725806, 0, 4.111769, 5.735007)" fill="none" stroke-linejoin="miter" d="M -0.000870716 0.498437 L 5.800865 0.498437 " stroke="#ffffff" stroke-width="1" stroke-opacity="1" stroke-miterlimit="4"/><g clip-path="url(#4addffac62)"><path fill="#820263" d="M 14.886719 0 C 10.902344 0 7.238281 1.585938 4.574219 4.28125 L 1.816406 2.300781 C 1.164062 1.832031 0.628906 2.105469 0.628906 2.910156 L 0.621094 13.105469 C 0.621094 13.910156 1.242188 14.351562 2 14.097656 L 11.660156 10.835938 C 12.421875 10.578125 12.511719 9.984375 11.859375 9.515625 L 8.671875 7.226562 C 10.363281 5.78125 12.535156 4.933594 14.886719 4.933594 C 20.167969 4.933594 24.46875 9.230469 24.46875 14.515625 C 24.46875 19.800781 20.167969 24.097656 14.886719 24.097656 C 10.453125 24.097656 6.539062 20.980469 5.550781 16.671875 L 0.871094 18.25 C 2.542969 24.527344 8.339844 29.03125 14.886719 29.03125 C 22.886719 29.03125 29.398438 22.519531 29.398438 14.515625 C 29.398438 6.511719 22.886719 0 14.886719 0 Z M 14.886719 0 " fill-opacity="1" fill-rule="nonzero"/></g></svg>