<svg xmlns="http://www.w3.org/2000/svg" xmlns:xlink="http://www.w3.org/1999/xlink" width="40" zoomAndPan="magnify" viewBox="0 0 30 30.000001" height="40" preserveAspectRatio="xMidYMid meet" version="1.0"><defs><clipPath id="f7094d2efb"><path d="M 15 3 L 29.515625 3 L 29.515625 26.128906 L 15 26.128906 Z M 15 3 " clip-rule="nonzero"/></clipPath><clipPath id="307b7edb2e"><path d="M 0.484375 3 L 15 3 L 15 26.128906 L 0.484375 26.128906 Z M 0.484375 3 " clip-rule="nonzero"/></clipPath></defs><path stroke-linecap="butt" transform="matrix(0, 0.725806, -0.725806, 0, 12.168221, 12.412426)" fill="none" stroke-linejoin="miter" d="M 0.00225436 0.500868 L 5.798609 0.500868 " stroke="#ffffff" stroke-width="1" stroke-opacity="1" stroke-miterlimit="4"/><g clip-path="url(#f7094d2efb)"><path fill="#820263" d="M 28.933594 13.503906 L 17.394531 3.40625 C 17.179688 3.21875 16.933594 3.105469 16.652344 3.0625 C 16.375 3.023438 16.105469 3.058594 15.847656 3.175781 C 15.589844 3.292969 15.382812 3.472656 15.230469 3.710938 C 15.078125 3.945312 15 4.207031 15 4.492188 L 15 24.6875 C 15 24.96875 15.078125 25.230469 15.230469 25.46875 C 15.382812 25.707031 15.589844 25.882812 15.847656 26 C 16.105469 26.117188 16.375 26.15625 16.652344 26.113281 C 16.933594 26.074219 17.179688 25.957031 17.394531 25.773438 L 28.933594 15.671875 C 29.089844 15.535156 29.210938 15.375 29.296875 15.183594 C 29.382812 14.996094 29.425781 14.796875 29.425781 14.589844 C 29.425781 14.378906 29.382812 14.183594 29.296875 13.992188 C 29.210938 13.804688 29.089844 13.640625 28.933594 13.503906 Z M 28.933594 13.503906 " fill-opacity="1" fill-rule="nonzero"/></g><g clip-path="url(#307b7edb2e)"><path fill="#820263" d="M 2.96875 3.40625 C 2.753906 3.21875 2.507812 3.105469 2.226562 3.0625 C 1.949219 3.023438 1.679688 3.058594 1.421875 3.175781 C 1.164062 3.292969 0.957031 3.472656 0.804688 3.710938 C 0.652344 3.945312 0.574219 4.207031 0.574219 4.492188 L 0.574219 24.6875 C 0.574219 24.96875 0.652344 25.230469 0.804688 25.46875 C 0.957031 25.707031 1.164062 25.882812 1.421875 26 C 1.679688 26.117188 1.945312 26.15625 2.226562 26.113281 C 2.507812 26.074219 2.753906 25.957031 2.96875 25.773438 L 14.507812 15.671875 C 14.664062 15.535156 14.785156 15.375 14.871094 15.183594 C 14.957031 14.996094 15 14.796875 15 14.589844 C 15 14.378906 14.957031 14.183594 14.871094 13.992188 C 14.785156 13.804688 14.664062 13.640625 14.507812 13.503906 Z M 2.96875 3.40625 " fill-opacity="1" fill-rule="nonzero"/></g></svg>