<svg xmlns="http://www.w3.org/2000/svg" xmlns:xlink="http://www.w3.org/1999/xlink" width="40" zoomAndPan="magnify" viewBox="0 0 30 30.000001" height="40" preserveAspectRatio="xMidYMid meet" version="1.0"><defs><clipPath id="b72e4e3d86"><path d="M 0.484375 0 L 29.515625 0 L 29.515625 29.03125 L 0.484375 29.03125 Z M 0.484375 0 " clip-rule="nonzero"/></clipPath><clipPath id="4f81e0de5c"><path d="M 0.484375 0 L 29.515625 0 L 29.515625 29.03125 L 0.484375 29.03125 Z M 0.484375 0 " clip-rule="nonzero"/></clipPath></defs><path stroke-linecap="butt" transform="matrix(0, 0.725806, -0.725806, 0, 12.168221, 12.412426)" fill="none" stroke-linejoin="miter" d="M 0.00225436 0.500868 L 5.798609 0.500868 " stroke="#ffffff" stroke-width="1" stroke-opacity="1" stroke-miterlimit="4"/><g clip-path="url(#b72e4e3d86)"><path fill="#0b6e4f" d="M 29.519531 14.519531 C 29.519531 22.535156 23.019531 29.035156 15 29.035156 C 6.984375 29.035156 0.484375 22.535156 0.484375 14.519531 C 0.484375 6.5 6.984375 0 15 0 C 23.019531 0 29.519531 6.5 29.519531 14.519531 " fill-opacity="1" fill-rule="nonzero"/></g><path fill="#ffffff" d="M 12.921875 21.777344 L 5.183594 14.042969 L 7.808594 11.417969 L 12.921875 16.527344 L 22.191406 7.257812 L 24.816406 9.882812 L 12.921875 21.777344 " fill-opacity="1" fill-rule="nonzero"/><g clip-path="url(#4f81e0de5c)"><path fill="#0b6e4f" d="M 29.519531 14.519531 C 29.519531 22.535156 23.019531 29.035156 15 29.035156 C 6.984375 29.035156 0.484375 22.535156 0.484375 14.519531 C 0.484375 6.5 6.984375 0 15 0 C 23.019531 0 29.519531 6.5 29.519531 14.519531 " fill-opacity="1" fill-rule="nonzero"/></g><path fill="#ffffff" d="M 12.921875 21.777344 L 5.183594 14.042969 L 7.808594 11.417969 L 12.921875 16.527344 L 22.191406 7.257812 L 24.816406 9.882812 L 12.921875 21.777344 " fill-opacity="1" fill-rule="nonzero"/></svg>