<svg xmlns="http://www.w3.org/2000/svg" xmlns:xlink="http://www.w3.org/1999/xlink" width="40" zoomAndPan="magnify" viewBox="0 0 30 30.000001" height="40" preserveAspectRatio="xMidYMid meet" version="1.0"><defs><g/></defs><g fill="#000000" fill-opacity="1"><g transform="translate(6.278945, 16.091007)"><g><path d="M 2.390625 -2.9375 C 2.828125 -2.9375 3.195312 -2.78125 3.5 -2.46875 C 3.8125 -2.164062 3.96875 -1.796875 3.96875 -1.359375 C 3.96875 -0.929688 3.8125 -0.5625 3.5 -0.25 C 3.195312 0.0507812 2.828125 0.203125 2.390625 0.203125 C 1.960938 0.203125 1.59375 0.0507812 1.28125 -0.25 C 0.976562 -0.5625 0.828125 -0.929688 0.828125 -1.359375 C 0.828125 -1.796875 0.976562 -2.164062 1.28125 -2.46875 C 1.59375 -2.78125 1.960938 -2.9375 2.390625 -2.9375 Z M 2.390625 -2.9375 "/></g></g></g><g fill="#000000" fill-opacity="1"><g transform="translate(12.5996, 16.091007)"><g><path d="M 2.390625 -2.9375 C 2.828125 -2.9375 3.195312 -2.78125 3.5 -2.46875 C 3.8125 -2.164062 3.96875 -1.796875 3.96875 -1.359375 C 3.96875 -0.929688 3.8125 -0.5625 3.5 -0.25 C 3.195312 0.0507812 2.828125 0.203125 2.390625 0.203125 C 1.960938 0.203125 1.59375 0.0507812 1.28125 -0.25 C 0.976562 -0.5625 0.828125 -0.929688 0.828125 -1.359375 C 0.828125 -1.796875 0.976562 -2.164062 1.28125 -2.46875 C 1.59375 -2.78125 1.960938 -2.9375 2.390625 -2.9375 Z M 2.390625 -2.9375 "/></g></g></g><g fill="#000000" fill-opacity="1"><g transform="translate(18.920256, 16.091007)"><g><path d="M 2.390625 -2.9375 C 2.828125 -2.9375 3.195312 -2.78125 3.5 -2.46875 C 3.8125 -2.164062 3.96875 -1.796875 3.96875 -1.359375 C 3.96875 -0.929688 3.8125 -0.5625 3.5 -0.25 C 3.195312 0.0507812 2.828125 0.203125 2.390625 0.203125 C 1.960938 0.203125 1.59375 0.0507812 1.28125 -0.25 C 0.976562 -0.5625 0.828125 -0.929688 0.828125 -1.359375 C 0.828125 -1.796875 0.976562 -2.164062 1.28125 -2.46875 C 1.59375 -2.78125 1.960938 -2.9375 2.390625 -2.9375 Z M 2.390625 -2.9375 "/></g></g></g></svg>