<svg xmlns="http://www.w3.org/2000/svg" xmlns:xlink="http://www.w3.org/1999/xlink" width="40" zoomAndPan="magnify" viewBox="0 0 30 30.000001" height="40" preserveAspectRatio="xMidYMid meet" version="1.0"><defs><clipPath id="93f488ef6d"><path d="M 15.828125 8.789062 L 20 8.789062 L 20 20.402344 L 15.828125 20.402344 Z M 15.828125 8.789062 " clip-rule="nonzero"/></clipPath><clipPath id="2f2c64e10b"><path d="M 15.945312 8.789062 L 20 8.789062 L 20 20.402344 L 15.945312 20.402344 Z M 15.945312 8.789062 " clip-rule="nonzero"/></clipPath></defs><g clip-path="url(#93f488ef6d)"><path fill="#820263" d="M 15.71875 19.3125 C 15.714844 19.074219 15.800781 18.875 15.964844 18.707031 C 16.242188 18.429688 16.484375 18.128906 16.703125 17.804688 C 16.917969 17.480469 17.097656 17.140625 17.246094 16.78125 C 17.394531 16.421875 17.507812 16.050781 17.582031 15.667969 C 17.660156 15.285156 17.699219 14.902344 17.699219 14.511719 C 17.699219 14.121094 17.660156 13.738281 17.582031 13.355469 C 17.507812 12.972656 17.394531 12.601562 17.246094 12.242188 C 17.097656 11.882812 16.917969 11.542969 16.703125 11.21875 C 16.484375 10.894531 16.242188 10.59375 15.964844 10.316406 C 15.789062 10.152344 15.699219 9.949219 15.695312 9.707031 C 15.691406 9.464844 15.777344 9.257812 15.949219 9.085938 C 16.121094 8.914062 16.328125 8.832031 16.570312 8.835938 C 16.8125 8.839844 17.015625 8.933594 17.179688 9.109375 C 17.53125 9.464844 17.847656 9.851562 18.125 10.269531 C 18.402344 10.6875 18.640625 11.128906 18.828125 11.589844 C 19.019531 12.054688 19.164062 12.53125 19.261719 13.023438 C 19.359375 13.515625 19.410156 14.011719 19.410156 14.511719 C 19.410156 15.015625 19.359375 15.511719 19.261719 16 C 19.164062 16.492188 19.019531 16.972656 18.828125 17.433594 C 18.640625 17.898438 18.402344 18.339844 18.125 18.753906 C 17.847656 19.171875 17.53125 19.558594 17.179688 19.914062 C 17.058594 20.035156 16.910156 20.117188 16.742188 20.148438 C 16.570312 20.183594 16.40625 20.167969 16.246094 20.101562 C 16.085938 20.035156 15.957031 19.929688 15.859375 19.785156 C 15.765625 19.640625 15.71875 19.484375 15.71875 19.308594 Z M 15.71875 19.3125 " fill-opacity="1" fill-rule="nonzero"/></g><g clip-path="url(#2f2c64e10b)"><path fill="#820263" d="M 15.832031 19.3125 C 15.832031 19.074219 15.914062 18.875 16.082031 18.707031 C 16.355469 18.429688 16.601562 18.128906 16.816406 17.804688 C 17.035156 17.480469 17.214844 17.140625 17.363281 16.78125 C 17.511719 16.421875 17.625 16.050781 17.699219 15.667969 C 17.777344 15.285156 17.8125 14.902344 17.8125 14.511719 C 17.8125 14.121094 17.777344 13.738281 17.699219 13.355469 C 17.625 12.972656 17.511719 12.601562 17.363281 12.242188 C 17.214844 11.882812 17.035156 11.542969 16.816406 11.21875 C 16.601562 10.894531 16.355469 10.59375 16.082031 10.316406 C 15.90625 10.152344 15.816406 9.949219 15.8125 9.707031 C 15.808594 9.464844 15.890625 9.257812 16.0625 9.085938 C 16.234375 8.914062 16.441406 8.832031 16.683594 8.835938 C 16.925781 8.839844 17.132812 8.933594 17.296875 9.109375 C 17.648438 9.464844 17.964844 9.851562 18.242188 10.269531 C 18.519531 10.6875 18.753906 11.128906 18.945312 11.589844 C 19.136719 12.054688 19.28125 12.53125 19.378906 13.023438 C 19.476562 13.515625 19.527344 14.011719 19.527344 14.511719 C 19.527344 15.015625 19.476562 15.511719 19.378906 16 C 19.28125 16.492188 19.136719 16.972656 18.945312 17.433594 C 18.753906 17.898438 18.519531 18.339844 18.242188 18.753906 C 17.964844 19.171875 17.648438 19.558594 17.296875 19.914062 C 17.171875 20.035156 17.027344 20.117188 16.855469 20.148438 C 16.6875 20.183594 16.523438 20.167969 16.363281 20.101562 C 16.203125 20.035156 16.074219 19.929688 15.976562 19.785156 C 15.882812 19.640625 15.832031 19.484375 15.832031 19.308594 Z M 15.832031 19.3125 " fill-opacity="1" fill-rule="nonzero"/></g></svg>