<svg xmlns="http://www.w3.org/2000/svg" xmlns:xlink="http://www.w3.org/1999/xlink" width="40" zoomAndPan="magnify" viewBox="0 0 30 30.000001" height="40" preserveAspectRatio="xMidYMid meet" version="1.0"><defs><clipPath id="50df276411"><path d="M 22 1 L 29.515625 1 L 29.515625 28 L 22 28 Z M 22 1 " clip-rule="nonzero"/></clipPath><clipPath id="2a68e90828"><path d="M 23.636719 1.480469 L 36.46875 14.308594 L 23.636719 27.140625 L 10.804688 14.308594 Z M 23.636719 1.480469 " clip-rule="nonzero"/></clipPath><clipPath id="f0e2150b8b"><path d="M 23.636719 1.480469 L 36.46875 14.308594 L 23.636719 27.140625 L 10.804688 14.308594 Z M 23.636719 1.480469 " clip-rule="nonzero"/></clipPath></defs><g clip-path="url(#50df276411)"><g clip-path="url(#2a68e90828)"><g clip-path="url(#f0e2150b8b)"><path fill="#820263" d="M 22.988281 26.894531 C 22.628906 26.535156 22.628906 25.953125 22.988281 25.597656 C 29.101562 19.484375 29.101562 9.539062 22.988281 3.425781 C 22.628906 3.066406 22.628906 2.488281 22.988281 2.128906 C 23.347656 1.769531 23.929688 1.769531 24.285156 2.128906 C 25.957031 3.800781 27.25 5.75 28.132812 7.921875 C 28.984375 10.019531 29.414062 12.238281 29.414062 14.507812 C 29.414062 16.78125 28.980469 19 28.132812 21.097656 C 27.25 23.269531 25.957031 25.21875 24.285156 26.890625 C 23.929688 27.25 23.347656 27.25 22.988281 26.894531 Z M 22.988281 26.894531 " fill-opacity="1" fill-rule="nonzero"/><path fill="#820263" d="M 22.988281 26.894531 C 22.628906 26.535156 22.628906 25.953125 22.988281 25.597656 C 29.101562 19.484375 29.101562 9.539062 22.988281 3.425781 C 22.628906 3.066406 22.628906 2.488281 22.988281 2.128906 C 23.347656 1.769531 23.929688 1.769531 24.285156 2.128906 C 25.957031 3.800781 27.25 5.75 28.132812 7.921875 C 28.984375 10.019531 29.414062 12.238281 29.414062 14.507812 C 29.414062 16.78125 28.980469 19 28.132812 21.097656 C 27.25 23.269531 25.957031 25.21875 24.285156 26.890625 C 23.929688 27.25 23.347656 27.25 22.988281 26.894531 Z M 22.988281 26.894531 " fill-opacity="1" fill-rule="nonzero"/></g></g></g></svg>