<svg xmlns="http://www.w3.org/2000/svg" xmlns:xlink="http://www.w3.org/1999/xlink" width="40" zoomAndPan="magnify" viewBox="0 0 30 30.000001" height="40" preserveAspectRatio="xMidYMid meet" version="1.0"><defs><clipPath id="86a892a13b"><path d="M 17 10 L 25.886719 10 L 25.886719 19 L 17 19 Z M 17 10 " clip-rule="nonzero"/></clipPath></defs><g clip-path="url(#86a892a13b)"><path fill="#820263" d="M 18.71875 10.558594 L 21.3125 13.152344 L 23.902344 10.558594 C 24.808594 9.652344 26.171875 11.015625 25.261719 11.921875 L 22.671875 14.511719 L 25.261719 17.105469 C 26.171875 18.011719 24.808594 19.371094 23.902344 18.464844 L 21.3125 15.875 L 18.71875 18.464844 C 17.8125 19.371094 16.453125 18.011719 17.359375 17.105469 L 19.949219 14.511719 L 17.359375 11.921875 C 16.453125 11.015625 17.8125 9.652344 18.71875 10.558594 Z M 18.71875 10.558594 " fill-opacity="1" fill-rule="evenodd"/><path fill="#820263" d="M 18.71875 10.558594 L 21.3125 13.152344 L 23.902344 10.558594 C 24.808594 9.652344 26.171875 11.015625 25.261719 11.921875 L 22.671875 14.511719 L 25.261719 17.105469 C 26.171875 18.011719 24.808594 19.371094 23.902344 18.464844 L 21.3125 15.875 L 18.71875 18.464844 C 17.8125 19.371094 16.453125 18.011719 17.359375 17.105469 L 19.949219 14.511719 L 17.359375 11.921875 C 16.453125 11.015625 17.8125 9.652344 18.71875 10.558594 Z M 18.71875 10.558594 " fill-opacity="1" fill-rule="evenodd"/></g></svg>