<svg xmlns="http://www.w3.org/2000/svg" xmlns:xlink="http://www.w3.org/1999/xlink" width="40" zoomAndPan="magnify" viewBox="0 0 30 30.000001" height="40" preserveAspectRatio="xMidYMid meet" version="1.0"><defs><clipPath id="a05c9ea52f"><path d="M 19 5 L 25 5 L 25 24 L 19 24 Z M 19 5 " clip-rule="nonzero"/></clipPath><clipPath id="68b3060398"><path d="M 30.011719 14.515625 L 20.257812 24.265625 L 10.507812 14.515625 L 20.257812 4.765625 Z M 30.011719 14.515625 " clip-rule="nonzero"/></clipPath><clipPath id="aebfcae85e"><path d="M 30.011719 14.515625 L 20.257812 24.265625 L 10.507812 14.515625 L 20.257812 4.765625 Z M 30.011719 14.515625 " clip-rule="nonzero"/></clipPath></defs><g clip-path="url(#a05c9ea52f)"><g clip-path="url(#68b3060398)"><g clip-path="url(#aebfcae85e)"><path fill="#820263" d="M 20.839844 23.6875 C 22.078125 22.449219 23.035156 21.003906 23.6875 19.394531 C 24.320312 17.839844 24.636719 16.199219 24.636719 14.515625 C 24.636719 12.832031 24.320312 11.191406 23.6875 9.636719 C 23.035156 8.027344 22.078125 6.582031 20.839844 5.34375 C 20.546875 5.050781 20.070312 5.050781 19.777344 5.34375 C 19.484375 5.636719 19.484375 6.117188 19.777344 6.410156 C 24.246094 10.878906 24.246094 18.152344 19.777344 22.621094 C 19.484375 22.914062 19.484375 23.394531 19.777344 23.6875 C 20.070312 23.980469 20.546875 23.980469 20.839844 23.6875 Z M 20.839844 23.6875 " fill-opacity="1" fill-rule="nonzero"/><path fill="#820263" d="M 20.839844 23.6875 C 22.078125 22.449219 23.035156 21.003906 23.6875 19.394531 C 24.320312 17.839844 24.636719 16.199219 24.636719 14.515625 C 24.636719 12.832031 24.320312 11.191406 23.6875 9.636719 C 23.035156 8.027344 22.078125 6.582031 20.839844 5.34375 C 20.546875 5.050781 20.070312 5.050781 19.777344 5.34375 C 19.484375 5.636719 19.484375 6.117188 19.777344 6.410156 C 24.246094 10.878906 24.246094 18.152344 19.777344 22.621094 C 19.484375 22.914062 19.484375 23.394531 19.777344 23.6875 C 20.070312 23.980469 20.546875 23.980469 20.839844 23.6875 Z M 20.839844 23.6875 " fill-opacity="1" fill-rule="nonzero"/></g></g></g></svg>